<svg id="Group_57" data-name="Group 57" xmlns="http://www.w3.org/2000/svg" width="28.656" height="26.451" viewBox="0 0 28.656 26.451">
  <ellipse id="Ellipse_16" data-name="Ellipse 16" cx="4.855" cy="4.782" rx="4.855" ry="4.782" transform="translate(3.635 3.968)" fill="#918fb7"/>
  <path id="Rectangle_35" data-name="Rectangle 35" d="M8.49,0h0a8.49,8.49,0,0,1,8.49,8.49v2.192a0,0,0,0,1,0,0H0a0,0,0,0,1,0,0V8.49A8.49,8.49,0,0,1,8.49,0Z" transform="translate(0 15.769)" fill="#918fb7"/>
  <ellipse id="Ellipse_17" data-name="Ellipse 17" cx="4.855" cy="4.782" rx="4.855" ry="4.782" transform="translate(15.307 0)" fill="#918fb7"/>
  <path id="Path_87" data-name="Path 87" d="M82.3,22.866v2.321H72.428a10.324,10.324,0,0,0-5.353-7.4A8.514,8.514,0,0,1,82.3,22.866Z" transform="translate(-53.644 -2.707)" fill="#918fb7"/>
</svg>
